# xmcd
# 
# Track frame offsets:
#     150
#     17062
#     32437
#     57922
#     74834
#     90209
# 
# Disc length: 1540
# 
# Revision: 0
# Processed by: cddbd v1.5.2PL0 Copyright (c) Steve Scherf et al.
# Submitted via: BonkEnc v1.0.8
# 
DISCID=44060206
DTITLE=Various Artist - SCHATTEN REVOLUTION DISC 2 VOCAL MAXI CD
DYEAR=0
DGENRE=
TTITLE0=Riryka - PRIDE
TTITLE1=Angel Note - 希望のウタ
TTITLE2=Angel Note - 鏡の森
TTITLE3=Angel Note - PRIDE Karaoke Version
TTITLE4=Angel Note - 希望のウタ Karaoke Version
TTITLE5=Angel Note - 鏡の森 Karaoke Version
EXTD=
EXTT0=
EXTT1=
EXTT2=
EXTT3=
EXTT4=
EXTT5=
PLAYORDER=
